<svg style="object-fit:cover" id="my-svg" version="1" baseProfile="full" width="100%" height="100%" viewBox="0 0 1280 563" xmlns="http://www.w3.org/2000/svg"><rect width="1280" height="563" fill="#ffffff"/><defs><linearGradient id="linear-gradient" x1="0.5" x2="1" y1="1" y2="0"><stop offset="0%" stop-color="#f5999f90"/><stop offset="100%" stop-color="#c38d8d90"/></linearGradient></defs><path transform="scale(-1, -1)" style="transform-origin:center" d="M 0,563 V 0,337 C 35.21605331916213,288.44321774943535 70.43210663832426,239.88643549887072 103,234 C 135.56789336167574,228.11356450112928 165.4876267658651,264.89747575395245 207,279 C 248.5123732341349,293.10252424604755 301.6173862982153,284.5236614853195 337,255 C 372.3826137017847,225.47633851468046 390.04282804127376,175.00787830476952 424,216 C 457.95717195872624,256.9921216952305 508.21130153669003,389.4448252956025 545,417 C 581.78869846331,444.5551747043975 605.1119658119658,367.2128205128205 635,306 C 664.8880341880342,244.7871794871795 701.3408352154466,199.70389265311547 743,238 C 784.6591647845534,276.2961073468845 831.5246933262478,397.97160887471773 872,435 C 912.4753066737522,472.02839112528227 946.5603914795624,424.4096718480138 973,384 C 999.4396085204376,343.5903281519862 1018.2337407555026,310.38970373322707 1050,300 C 1081.7662592444974,289.61029626677293 1126.5046454984279,302.03151321907797 1167,312 C 1207.4953545015721,321.96848678092203 1243.7476772507862,329.484243390461 1280,337 C 1280,337 1280,563 1280,563 Z" stroke="none" stroke-width="0" fill="url(#linear-gradient)" class="transition-all duration-300 ease-in-out delay-150"/><defs><linearGradient id="linear-gradient" x1="0.5" x2="1" y1="1" y2="0"><stop offset="0%" stop-color="#f5999fff"/><stop offset="100%" stop-color="#c38d8dff"/></linearGradient></defs><path transform="scale(-1, -1)" style="transform-origin:center" d="M 0,563 V 0,506 C 32.145747372949444,476.0594080358329 64.29149474589889,446.1188160716659 104,451 C 143.7085052541011,455.8811839283341 190.97976838935392,495.5841437491696 227,481 C 263.0202316106461,466.4158562508304 287.78943169668565,397.54460893165555 317,397 C 346.21056830331435,396.45539106834445 379.8625048239037,464.23742052420806 415,458 C 450.1374951760963,451.76257947579194 486.7605490076993,371.5057089715121 521,391 C 555.2394509923007,410.4942910284879 587.0952991452992,529.7397435897435 626,549 C 664.9047008547008,568.2602564102565 710.8582544111041,487.5353166695135 752,457 C 793.1417455888959,426.4646833304865 829.4716832102844,446.1189897322022 866,489 C 902.5283167897156,531.8810102677978 939.2550127477588,597.9887244016777 967,596 C 994.7449872522412,594.0112755983223 1013.5082657986804,523.9261126610868 1050,518 C 1086.4917342013196,512.0738873389132 1140.7119240575198,570.3068249539753 1182,579 C 1223.2880759424802,587.6931750460247 1251.64403797124,546.8465875230124 1280,506 C 1280,506 1280,563 1280,563 Z" stroke="none" stroke-width="0" fill="url(#linear-gradient)" class="transition-all duration-300 ease-in-out delay-150"/></svg>